<svg version="1.1" xmlns="http://www.w3.org/2000/svg" xmlns:xlink="http://www.w3.org/1999/xlink" width="749" height="656" viewBox="0 0 749 656"><defs/><g transform="matrix(1,0,0,1,0,0)"><g><g><g><path fill="none" stroke="#d3d3d3" paint-order="fill stroke markers" d=" M 0 0 L 1200 0" stroke-miterlimit="10" stroke-opacity="0.8" stroke-dasharray="5"/></g><g><path fill="none" stroke="#d3d3d3" paint-order="fill stroke markers" d=" M 0 0 L 0 800" stroke-miterlimit="10" stroke-opacity="0.8" stroke-dasharray="5"/></g></g><g id="_AA61798D-9800-4A65-8A7A-BE5D84BF9039" bpmn2nodeid="_AA61798D-9800-4A65-8A7A-BE5D84BF9039" transform="matrix(1,0,0,1,91,452)"><g><path fill="none" stroke="none"/></g><g transform="matrix(0.125,0,0,0.125,0,0)"><g transform="matrix(1,0,0,1,0,0)"><path fill="#e8fae6" stroke="black" id="_AA61798D-9800-4A65-8A7A-BE5D84BF9039?shapeType=BACKGROUND" paint-order="fill stroke markers" d=" M 0 0 M 444 224 C 444 263.9 434.2 300.8 414.4 334.5 C 394.7 368.2 368 394.9 334.4 414.5 C 300.79999999999995 434.1 263.9 444 224 444 C 184.10000000000002 444 147.2 434.2 113.5 414.4 C 79.8 394.7 53.1 368 33.5 334.4 C 13.899999999999999 300.79999999999995 4 263.9 4 224 C 4 184.10000000000002 13.8 147.2 33.6 113.5 C 53.400000000000006 79.80000000000001 80.1 53.1 113.6 33.5 C 147.1 13.899999999999999 184.1 4 224 4 C 263.9 4 300.8 13.8 334.5 33.6 C 368.2 53.400000000000006 394.9 80.1 414.5 113.6 C 434.1 147.1 444 184.1 444 224 Z" stroke-miterlimit="10" stroke-dasharray=""/></g><g><g transform="matrix(1,0,0,1,0,0)"><g transform="matrix(1,0,0,1,0,0)"><path fill="#4aa241" stroke="none" id="_AA61798D-9800-4A65-8A7A-BE5D84BF9039?shapeType=BORDER&amp;renderType=FILL" paint-order="stroke fill markers" d=" M 0 0 M 224 0 C 100.3 0 0 100.3 0 224 C 0 347.7 100.3 448 224 448 C 347.7 448 448 347.7 448 224 C 448 100.30000000000001 347.7 0 224 0 Z M 0 0 M 224 432 C 109.1 432 16 338.9 16 224 C 16 109.10000000000002 109.1 16 224 16 C 338.9 16 432 109.1 432 224 C 432 338.9 338.9 432 224 432 Z"/></g></g></g><g><g transform="matrix(1,0,0,1,0,0)"><g transform="matrix(1,0,0,1,0,0)"><path fill="#4aa241" stroke="black" id="_AA61798D-9800-4A65-8A7A-BE5D84BF9039_message-catching" paint-order="fill stroke markers" d=" M 0 0 M 320.2 288.7 L 320.2 192.7 C 317.59999999999997 195.7 314.7 198.5 311.59999999999997 200.89999999999998 C 289.2 218.09999999999997 271.49999999999994 232.09999999999997 258.4 243.09999999999997 C 254.2 246.69999999999996 250.7 249.49999999999997 247.99999999999997 251.49999999999997 C 245.29999999999995 253.49999999999997 241.79999999999998 255.49999999999997 237.19999999999996 257.59999999999997 C 232.59999999999997 259.7 228.39999999999995 260.7 224.39999999999995 260.7 L 224.19999999999996 260.7 C 220.19999999999996 260.7 215.99999999999997 259.7 211.39999999999995 257.59999999999997 C 206.79999999999995 255.49999999999997 203.19999999999996 253.49999999999997 200.59999999999994 251.49999999999997 C 197.89999999999995 249.49999999999997 194.49999999999994 246.69999999999996 190.19999999999993 243.09999999999997 C 177.09999999999994 232.09999999999997 159.29999999999993 217.99999999999997 136.99999999999994 200.89999999999998 C 133.89999999999995 198.39999999999998 131.09999999999994 195.7 128.39999999999995 192.7 L 128.39999999999995 288.7 C 128.39999999999995 289.8 128.79999999999995 290.7 129.59999999999994 291.5 C 130.39999999999992 292.3 131.39999999999995 292.7 132.39999999999995 292.7 L 316.4 292.7 C 317.5 292.7 318.4 292.3 319.2 291.5 C 319.9 290.7 320.2 289.8 320.2 288.7 Z M 0 0 M 320.2 152.7 C 320.2 151.6 319.8 150.7 319 149.89999999999998 C 318.2 149.09999999999997 317.3 148.7 316.2 148.7 L 316.2 148.7 L 132.2 148.7 C 131.1 148.7 130.2 149.1 129.39999999999998 149.89999999999998 C 128.59999999999997 150.7 128.2 151.59999999999997 128.2 152.7 C 128.2 166.7 134.29999999999998 178.5 146.6 188.2 C 162.7 200.89999999999998 179.39999999999998 214.1 196.7 227.79999999999998 C 197.2 228.2 198.6 229.49999999999997 201.1 231.49999999999997 C 203.6 233.59999999999997 205.5 235.09999999999997 206.9 236.19999999999996 C 208.3 237.29999999999995 210.1 238.59999999999997 212.5 240.09999999999997 C 214.9 241.59999999999997 216.9 242.79999999999995 218.8 243.49999999999997 C 220.70000000000002 244.29999999999998 222.5 244.59999999999997 224.20000000000002 244.59999999999997 L 224.4 244.59999999999997 C 226 244.59999999999997 227.8 244.19999999999996 229.8 243.49999999999997 C 231.8 242.79999999999998 233.8 241.59999999999997 236.10000000000002 240.09999999999997 C 238.40000000000003 238.59999999999997 240.3 237.19999999999996 241.70000000000002 236.19999999999996 C 243.10000000000002 235.09999999999997 245.10000000000002 233.59999999999997 247.50000000000003 231.49999999999997 C 249.90000000000003 229.39999999999998 251.40000000000003 228.29999999999998 251.90000000000003 227.79999999999998 C 269.3 213.99999999999997 285.90000000000003 200.89999999999998 302.00000000000006 188.2 C 306.50000000000006 184.6 310.70000000000005 179.79999999999998 314.6000000000001 173.7 C 318.50000000000006 167.7 320.4000000000001 162.2 320.4000000000001 157.29999999999998 L 320.4000000000001 154.2 L 320.4000000000001 152.7 Z M 0 0 M 336.2 152.7 L 336.2 288.7 C 336.2 294.2 334.3 298.9 330.3 302.8 C 326.40000000000003 306.7 321.7 308.7 316.2 308.7 L 132.2 308.7 C 126.69999999999999 308.7 121.99999999999999 306.7 118.1 302.8 C 114.19999999999999 298.90000000000003 112.19999999999999 294.2 112.19999999999999 288.7 L 112.19999999999999 152.7 C 112.19999999999999 147.2 114.19999999999999 142.5 118.1 138.6 C 122 134.7 126.69999999999999 132.7 132.2 132.7 L 316.2 132.7 C 321.7 132.7 326.4 134.6 330.3 138.6 C 334.2 142.6 336.2 147.2 336.2 152.7 Z" stroke-miterlimit="10" stroke-dasharray=""/></g></g></g></g><g transform="matrix(1,0,0,1,28,61)"/></g><g transform="matrix(1,0,0,1,91,452)"/><g id="_6DAD1DFF-13D0-43B7-8407-3A1CC8CBA6E9" bpmn2nodeid="_6DAD1DFF-13D0-43B7-8407-3A1CC8CBA6E9" transform="matrix(1,0,0,1,235,452)"><g><path fill="none" stroke="none"/></g><g transform="matrix(0.125,0,0,0.125,0,0)"><g transform="matrix(1,0,0,1,0,0)"><path fill="#bedee1" stroke="black" id="_6DAD1DFF-13D0-43B7-8407-3A1CC8CBA6E9?shapeType=BACKGROUND" paint-order="fill stroke markers" d=" M 0 0 M 444 224 C 444 263.9 434.2 300.8 414.4 334.5 C 394.7 368.2 368 394.9 334.4 414.5 C 300.79999999999995 434.1 263.9 444 224 444 C 184.10000000000002 444 147.2 434.2 113.5 414.4 C 79.8 394.7 53.1 368 33.5 334.4 C 13.899999999999999 300.79999999999995 4 263.9 4 224 C 4 184.10000000000002 13.8 147.2 33.6 113.5 C 53.400000000000006 79.80000000000001 80.1 53.1 113.6 33.5 C 147.1 13.899999999999999 184.1 4 224 4 C 263.9 4 300.8 13.8 334.5 33.6 C 368.2 53.400000000000006 394.9 80.1 414.5 113.6 C 434.1 147.1 444 184.1 444 224 Z" stroke-miterlimit="10" stroke-dasharray=""/></g><g><g transform="matrix(1,0,0,1,0,0)"><g transform="matrix(1,0,0,1,0,0)"><path fill="#007a87" stroke="black" id="_6DAD1DFF-13D0-43B7-8407-3A1CC8CBA6E9?shapeType=BORDER&amp;renderType=FILL" paint-order="fill stroke markers" d=" M 0 0 M 224 408 C 122.5 408 40 325.5 40 224 C 40 122.5 122.5 40 224 40 C 325.5 40 408 122.5 408 224 C 408 325.5 325.5 408 224 408 Z M 0 0 M 224 56 C 131.4 56 56 131.4 56 224 C 56 316.6 131.4 392 224 392 C 316.6 392 392 316.6 392 224 C 392 131.39999999999998 316.6 56 224 56 Z M 0 0 M 224 16 C 252.1 16 279.3 21.5 305 32.3 C 329.8 42.8 352 57.8 371.1 76.9 C 390.20000000000005 96.00000000000001 405.20000000000005 118.30000000000001 415.70000000000005 143 C 426.50000000000006 168.6 432.00000000000006 195.9 432.00000000000006 224 C 432.00000000000006 252.1 426.50000000000006 279.3 415.70000000000005 305 C 405.20000000000005 329.8 390.20000000000005 352 371.1 371.1 C 352 390.20000000000005 329.70000000000005 405.20000000000005 305 415.70000000000005 C 279.4 426.50000000000006 252.1 432.00000000000006 224 432.00000000000006 C 195.9 432.00000000000006 168.7 426.50000000000006 143 415.70000000000005 C 118.2 405.20000000000005 96 390.20000000000005 76.9 371.1 C 57.80000000000001 352 42.8 329.7 32.3 305 C 21.5 279.3 16 252.1 16 224 C 16 195.9 21.5 168.7 32.3 143 C 42.8 118.2 57.8 96 76.9 76.9 C 96.00000000000001 57.80000000000001 118.30000000000001 42.800000000000004 143 32.300000000000004 C 168.7 21.5 195.9 16 224 16 M 224 0 C 100.3 0 0 100.3 0 224 C 0 347.7 100.3 448 224 448 C 347.7 448 448 347.7 448 224 C 448 100.30000000000001 347.7 0 224 0 L 224 0 Z" stroke-miterlimit="10" stroke-dasharray=""/></g></g></g><g><g transform="matrix(1,0,0,1,0,0)"><g transform="matrix(1,0,0,1,0,0)"><path fill="#007a87" stroke="black" id="_6DAD1DFF-13D0-43B7-8407-3A1CC8CBA6E9_message-throwing" paint-order="fill stroke markers" d=" M 0 0 M 336.2 189.4 L 336.2 288.7 C 336.2 294.2 334.3 298.9 330.3 302.8 C 326.40000000000003 306.7 321.7 308.7 316.2 308.7 L 132.2 308.7 C 126.69999999999999 308.7 121.99999999999999 306.7 118.1 302.8 C 114.19999999999999 298.90000000000003 112.19999999999999 294.2 112.19999999999999 288.7 L 112.19999999999999 189.39999999999998 C 115.89999999999999 193.49999999999997 120.1 197.09999999999997 124.79999999999998 200.29999999999998 C 154.99999999999997 220.79999999999998 175.7 235.2 186.89999999999998 243.39999999999998 C 191.7 246.89999999999998 195.49999999999997 249.59999999999997 198.49999999999997 251.59999999999997 C 201.39999999999998 253.49999999999997 205.39999999999998 255.49999999999997 210.29999999999998 257.59999999999997 C 215.2 259.7 219.79999999999998 260.7 224.1 260.7 L 224.29999999999998 260.7 C 228.49999999999997 260.7 233.1 259.7 238.1 257.59999999999997 C 243 255.49999999999997 247 253.49999999999997 249.9 251.59999999999997 C 252.8 249.69999999999996 256.7 246.89999999999998 261.5 243.39999999999998 C 275.6 233.2 296.4 218.79999999999998 323.7 200.29999999999998 C 328.5 197.1 332.6 193.4 336.2 189.4 Z M 0 0 M 336.2 152.7 C 336.2 159.29999999999998 334.2 165.6 330.09999999999997 171.6 C 326.09999999999997 177.6 320.99999999999994 182.7 314.9 187 C 283.5 208.8 264 222.3 256.4 227.6 C 255.59999999999997 228.2 253.79999999999998 229.4 251.09999999999997 231.4 C 248.39999999999995 233.4 246.19999999999996 235 244.29999999999995 236.20000000000002 C 242.39999999999995 237.40000000000003 240.39999999999995 238.8 237.79999999999995 240.3 C 235.19999999999996 241.8 232.89999999999995 242.9 230.59999999999997 243.70000000000002 C 228.29999999999998 244.50000000000003 226.19999999999996 244.8 224.39999999999998 244.8 L 224.2 244.8 C 222.29999999999998 244.8 220.2 244.4 218 243.70000000000002 C 215.8 243.00000000000003 213.3 241.8 210.8 240.3 C 208.20000000000002 238.8 206.10000000000002 237.4 204.3 236.20000000000002 C 202.5 235.00000000000003 200.20000000000002 233.4 197.5 231.4 C 194.79999999999998 229.4 193 228.20000000000002 192.2 227.6 C 184.6 222.29999999999998 173.7 214.7 159.39999999999998 204.79999999999998 C 145.09999999999997 194.89999999999998 136.59999999999997 188.99999999999997 133.79999999999998 186.99999999999997 C 128.6 183.49999999999997 123.69999999999999 178.69999999999996 119.19999999999999 172.59999999999997 C 114.69999999999999 166.49999999999997 112.29999999999998 160.79999999999995 112.29999999999998 155.49999999999997 C 112.29999999999998 148.99999999999997 114.09999999999998 143.59999999999997 117.49999999999999 139.29999999999998 C 120.89999999999999 134.99999999999997 125.89999999999999 132.79999999999998 132.29999999999998 132.79999999999998 L 316.29999999999995 132.79999999999998 C 321.69999999999993 132.79999999999998 326.4 134.7 330.4 138.7 C 334.2 142.6 336.2 147.2 336.2 152.7 Z" stroke-miterlimit="10" stroke-dasharray=""/></g></g></g></g><g transform="matrix(1,0,0,1,28,61)"/></g><g transform="matrix(1,0,0,1,235,452)"/><g id="_A493C1F5-A4F5-4C7A-A45A-A0EFC59DA062" bpmn2nodeid="_A493C1F5-A4F5-4C7A-A45A-A0EFC59DA062" transform="matrix(1,0,0,1,371,452)"><g><path fill="none" stroke="none"/></g><g transform="matrix(0.125,0,0,0.125,0,0)"><g transform="matrix(1,0,0,1,0,0)"><path fill="#fef4ea" stroke="black" id="_A493C1F5-A4F5-4C7A-A45A-A0EFC59DA062?shapeType=BACKGROUND" paint-order="fill stroke markers" d=" M 0 0 M 224.4 4.3 C 216.4 4.3 208.4 7.3 202.3 13.399999999999999 L 13.5 202.2 C 1.3000000000000007 214.39999999999998 1.3000000000000007 234.2 13.5 246.39999999999998 L 202.2 435.09999999999997 C 208.29999999999998 441.2 216.39999999999998 444.2 224.29999999999998 444.2 C 232.2 444.2 240.29999999999998 441.2 246.39999999999998 435.09999999999997 L 435.09999999999997 246.39999999999998 C 447.29999999999995 234.2 447.29999999999995 214.39999999999998 435.09999999999997 202.2 L 246.5 13.4 C 240.4 7.3 232.4 4.3 224.4 4.3 L 224.4 4.3 Z" stroke-miterlimit="10" stroke-dasharray=""/></g><g><g transform="matrix(1,0,0,1,0,0)"><g transform="matrix(1,0,0,1,0,0)"><path fill="#ec7a08" stroke="black" id="_A493C1F5-A4F5-4C7A-A45A-A0EFC59DA062?shapeType=BORDER&amp;renderType=FILL" paint-order="fill stroke markers" d=" M 0 0 M 20.8 212.7 L 213.3 20.2 C 219.60000000000002 13.899999999999999 229.70000000000002 13.899999999999999 235.9 20.2 L 428.4 212.7 C 434.7 219 434.7 229.1 428.4 235.29999999999998 L 235.9 427.8 C 229.6 434.1 219.5 434.1 213.3 427.8 L 20.8 235.3 C 14.5 229.1 14.5 218.9 20.8 212.7 L 20.8 212.7 Z M 0 0 M 0 224 C 0 232.1 3.1 240.3 9.3 246.5 L 201.5 438.7 C 213.9 451.09999999999997 234.1 451.09999999999997 246.5 438.7 L 438.7 246.5 C 444.9 240.3 448 232.1 448 224 C 448 215.9 444.9 207.7 438.7 201.5 L 246.5 9.3 C 234.1 -3.0999999999999996 213.9 -3.0999999999999996 201.5 9.3 L 9.3 201.5 C 3.1 207.7 0 215.9 0 224 L 0 224 Z" stroke-miterlimit="10" stroke-dasharray=""/></g></g></g><g><g transform="matrix(1,0,0,1,0,0)"><g transform="matrix(1,0,0,1,0,0)"><path fill="#ec7a08" stroke="black" id="_A493C1F5-A4F5-4C7A-A45A-A0EFC59DA062_event" paint-order="fill stroke markers" d=" M 0 0 M 224 128 C 249.6 128 273.8 138 291.9 156.1 C 309.99999999999994 174.2 320 198.3 320 224 C 320 249.7 310 273.8 291.9 291.9 C 273.79999999999995 309.99999999999994 249.6 320 224 320 C 198.4 320 174.2 310 156.1 291.9 C 138 273.7 128 249.6 128 224 C 128 198.4 138 174.2 156.1 156.1 C 174.2 138 198.4 128 224 128 M 224 112 C 162.1 112 112 162.2 112 224 C 112 285.8 162.1 336 224 336 C 285.9 336 336 285.9 336 224 C 336 162.10000000000002 285.9 112 224 112 L 224 112 Z M 0 0 M 224.1 176.3 L 233.29999999999998 194.9 L 233.29999999999998 195 L 233.29999999999998 195.1 C 236.2 200.9 241.7 204.79999999999998 247.89999999999998 205.7 L 268.5 208.7 L 253.6 223.29999999999998 L 253.5 223.39999999999998 L 253.4 223.49999999999997 C 248.9 227.99999999999997 246.8 234.39999999999998 248 240.69999999999996 L 251.6 261.29999999999995 L 233.2 251.69999999999996 C 230.39999999999998 250.19999999999996 227.29999999999998 249.39999999999995 224.1 249.39999999999995 C 220.9 249.39999999999995 217.79999999999998 250.19999999999996 215 251.69999999999996 L 196.6 261.29999999999995 L 200.2 240.69999999999996 C 201.29999999999998 234.49999999999997 199.29999999999998 228.09999999999997 194.79999999999998 223.49999999999997 L 194.7 223.39999999999998 L 194.6 223.29999999999998 L 179.5 208.7 L 200.1 205.7 C 206.5 204.79999999999998 212 200.79999999999998 214.9 195 L 224.1 176.3 M 224 144.4 C 222.8 144.4 221.6 145.1 221 146.3 L 200.5 187.9 C 200 189 199 189.70000000000002 197.9 189.8 L 152.10000000000002 196.5 C 149.3 196.9 148.20000000000002 200.4 150.20000000000002 202.4 L 183.40000000000003 234.8 C 184.20000000000005 235.60000000000002 184.60000000000002 236.70000000000002 184.40000000000003 237.9 L 176.60000000000002 283.5 C 176.20000000000002 285.7 177.90000000000003 287.5 179.90000000000003 287.5 C 180.50000000000003 287.5 181.00000000000003 287.4 181.60000000000002 287.1 L 222.60000000000002 265.6 C 223.10000000000002 265.3 223.60000000000002 265.20000000000005 224.20000000000002 265.20000000000005 C 224.8 265.20000000000005 225.3 265.30000000000007 225.8 265.6 L 266.8 287.1 C 267.3 287.3 267.90000000000003 287.5 268.40000000000003 287.5 C 270.40000000000003 287.5 272.20000000000005 285.7 271.8 283.5 L 263.90000000000003 237.8 C 263.70000000000005 236.70000000000002 264.1 235.60000000000002 264.90000000000003 234.70000000000002 L 298.00000000000006 202.40000000000003 C 300.1000000000001 200.40000000000003 298.90000000000003 196.90000000000003 296.1000000000001 196.50000000000003 L 250.20000000000007 189.90000000000003 C 249.10000000000008 189.70000000000005 248.10000000000008 189.00000000000003 247.60000000000008 188.00000000000003 L 227.10000000000008 146.40000000000003 C 226.5 145 225.2 144.4 224 144.4 L 224 144.4 Z" stroke-miterlimit="10" stroke-dasharray=""/></g></g></g></g><g transform="matrix(1,0,0,1,28,61)"/></g><g transform="matrix(1,0,0,1,371,452)"/><g id="_C042A944-3ED4-4CF9-BD48-F93478F7072E" bpmn2nodeid="_C042A944-3ED4-4CF9-BD48-F93478F7072E" transform="matrix(1,0,0,1,507,452)"><g><path fill="none" stroke="none"/></g><g transform="matrix(0.125,0,0,0.125,0,0)"><g transform="matrix(1,0,0,1,0,0)"><path fill="#fbefcf" stroke="black" id="_C042A944-3ED4-4CF9-BD48-F93478F7072E?shapeType=BACKGROUND" paint-order="fill stroke markers" d=" M 0 0 M 444 224 C 444 263.9 434.2 300.8 414.4 334.5 C 394.7 368.2 368 394.9 334.4 414.5 C 300.79999999999995 434.1 263.9 444 224 444 C 184.10000000000002 444 147.2 434.2 113.5 414.4 C 79.8 394.7 53.1 368 33.5 334.4 C 13.899999999999999 300.79999999999995 4 263.9 4 224 C 4 184.10000000000002 13.8 147.2 33.6 113.5 C 53.400000000000006 79.80000000000001 80.1 53.1 113.6 33.5 C 147.1 13.899999999999999 184.1 4 224 4 C 263.9 4 300.8 13.8 334.5 33.6 C 368.2 53.400000000000006 394.9 80.1 414.5 113.6 C 434.1 147.1 444 184.1 444 224 Z" stroke-miterlimit="10" stroke-dasharray=""/></g><g><g transform="matrix(1,0,0,1,0,0)"><g transform="matrix(1,0,0,1,0,0)"><path fill="#e5a000" stroke="none" id="_C042A944-3ED4-4CF9-BD48-F93478F7072E?shapeType=BORDER&amp;renderType=FILL" paint-order="stroke fill markers" d=" M 0 0 M 224 408 C 122.5 408 40 325.5 40 224 C 40 122.5 122.5 40 224 40 C 325.5 40 408 122.5 408 224 C 408 325.5 325.5 408 224 408 Z M 0 0 M 224 56 C 131.4 56 56 131.4 56 224 C 56 316.6 131.4 392 224 392 C 316.6 392 392 316.6 392 224 C 392 131.39999999999998 316.6 56 224 56 Z M 0 0 M 224 16 C 252.1 16 279.3 21.5 305 32.3 C 329.8 42.8 352 57.8 371.1 76.9 C 390.20000000000005 96.00000000000001 405.20000000000005 118.30000000000001 415.70000000000005 143 C 426.50000000000006 168.6 432.00000000000006 195.9 432.00000000000006 224 C 432.00000000000006 252.1 426.50000000000006 279.3 415.70000000000005 305 C 405.20000000000005 329.8 390.20000000000005 352 371.1 371.1 C 352 390.20000000000005 329.70000000000005 405.20000000000005 305 415.70000000000005 C 279.4 426.50000000000006 252.1 432.00000000000006 224 432.00000000000006 C 195.9 432.00000000000006 168.7 426.50000000000006 143 415.70000000000005 C 118.2 405.20000000000005 96 390.20000000000005 76.9 371.1 C 57.80000000000001 352 42.8 329.7 32.3 305 C 21.5 279.3 16 252.1 16 224 C 16 195.9 21.5 168.7 32.3 143 C 42.8 118.2 57.8 96 76.9 76.9 C 96.00000000000001 57.80000000000001 118.30000000000001 42.800000000000004 143 32.300000000000004 C 168.7 21.5 195.9 16 224 16 M 224 0 C 100.3 0 0 100.3 0 224 C 0 347.7 100.3 448 224 448 C 347.7 448 448 347.7 448 224 C 448 100.30000000000001 347.7 0 224 0 L 224 0 Z"/></g></g></g><g><g transform="matrix(1,0,0,1,0,0)"><g transform="matrix(1,0,0,1,0,0)"><path fill="#e5a000" stroke="black" id="_C042A944-3ED4-4CF9-BD48-F93478F7072E_message-catching" paint-order="fill stroke markers" d=" M 0 0 M 320.2 288.7 L 320.2 192.7 C 317.59999999999997 195.7 314.7 198.5 311.59999999999997 200.89999999999998 C 289.2 218.09999999999997 271.49999999999994 232.09999999999997 258.4 243.09999999999997 C 254.2 246.69999999999996 250.7 249.49999999999997 247.99999999999997 251.49999999999997 C 245.29999999999995 253.49999999999997 241.79999999999998 255.49999999999997 237.19999999999996 257.59999999999997 C 232.59999999999997 259.7 228.39999999999995 260.7 224.39999999999995 260.7 L 224.19999999999996 260.7 C 220.19999999999996 260.7 215.99999999999997 259.7 211.39999999999995 257.59999999999997 C 206.79999999999995 255.49999999999997 203.19999999999996 253.49999999999997 200.59999999999994 251.49999999999997 C 197.89999999999995 249.49999999999997 194.49999999999994 246.69999999999996 190.19999999999993 243.09999999999997 C 177.09999999999994 232.09999999999997 159.29999999999993 217.99999999999997 136.99999999999994 200.89999999999998 C 133.89999999999995 198.39999999999998 131.09999999999994 195.7 128.39999999999995 192.7 L 128.39999999999995 288.7 C 128.39999999999995 289.8 128.79999999999995 290.7 129.59999999999994 291.5 C 130.39999999999992 292.3 131.39999999999995 292.7 132.39999999999995 292.7 L 316.4 292.7 C 317.5 292.7 318.4 292.3 319.2 291.5 C 319.9 290.7 320.2 289.8 320.2 288.7 Z M 0 0 M 320.2 152.7 C 320.2 151.6 319.8 150.7 319 149.89999999999998 C 318.2 149.09999999999997 317.3 148.7 316.2 148.7 L 316.2 148.7 L 132.2 148.7 C 131.1 148.7 130.2 149.1 129.39999999999998 149.89999999999998 C 128.59999999999997 150.7 128.2 151.59999999999997 128.2 152.7 C 128.2 166.7 134.29999999999998 178.5 146.6 188.2 C 162.7 200.89999999999998 179.39999999999998 214.1 196.7 227.79999999999998 C 197.2 228.2 198.6 229.49999999999997 201.1 231.49999999999997 C 203.6 233.59999999999997 205.5 235.09999999999997 206.9 236.19999999999996 C 208.3 237.29999999999995 210.1 238.59999999999997 212.5 240.09999999999997 C 214.9 241.59999999999997 216.9 242.79999999999995 218.8 243.49999999999997 C 220.70000000000002 244.29999999999998 222.5 244.59999999999997 224.20000000000002 244.59999999999997 L 224.4 244.59999999999997 C 226 244.59999999999997 227.8 244.19999999999996 229.8 243.49999999999997 C 231.8 242.79999999999998 233.8 241.59999999999997 236.10000000000002 240.09999999999997 C 238.40000000000003 238.59999999999997 240.3 237.19999999999996 241.70000000000002 236.19999999999996 C 243.10000000000002 235.09999999999997 245.10000000000002 233.59999999999997 247.50000000000003 231.49999999999997 C 249.90000000000003 229.39999999999998 251.40000000000003 228.29999999999998 251.90000000000003 227.79999999999998 C 269.3 213.99999999999997 285.90000000000003 200.89999999999998 302.00000000000006 188.2 C 306.50000000000006 184.6 310.70000000000005 179.79999999999998 314.6000000000001 173.7 C 318.50000000000006 167.7 320.4000000000001 162.2 320.4000000000001 157.29999999999998 L 320.4000000000001 154.2 L 320.4000000000001 152.7 Z M 0 0 M 336.2 152.7 L 336.2 288.7 C 336.2 294.2 334.3 298.9 330.3 302.8 C 326.40000000000003 306.7 321.7 308.7 316.2 308.7 L 132.2 308.7 C 126.69999999999999 308.7 121.99999999999999 306.7 118.1 302.8 C 114.19999999999999 298.90000000000003 112.19999999999999 294.2 112.19999999999999 288.7 L 112.19999999999999 152.7 C 112.19999999999999 147.2 114.19999999999999 142.5 118.1 138.6 C 122 134.7 126.69999999999999 132.7 132.2 132.7 L 316.2 132.7 C 321.7 132.7 326.4 134.6 330.3 138.6 C 334.2 142.6 336.2 147.2 336.2 152.7 Z" stroke-miterlimit="10" stroke-dasharray=""/></g></g></g></g><g transform="matrix(1,0,0,1,28,61)"/></g><g transform="matrix(1,0,0,1,507,452)"/><g id="_507D22EF-E6EF-4FFC-927D-1C4C270CB7D2" bpmn2nodeid="_507D22EF-E6EF-4FFC-927D-1C4C270CB7D2" transform="matrix(1,0,0,1,507,550)"><g><path fill="none" stroke="none"/></g><g transform="matrix(0.125,0,0,0.125,0,0)"><g transform="matrix(1,0,0,1,0,0)"><path fill="#fbefcf" stroke="black" id="_507D22EF-E6EF-4FFC-927D-1C4C270CB7D2?shapeType=BACKGROUND" paint-order="fill stroke markers" d=" M 0 0 M 444 224 C 444 263.9 434.2 300.8 414.4 334.5 C 394.7 368.2 368 394.9 334.4 414.5 C 300.79999999999995 434.1 263.9 444 224 444 C 184.10000000000002 444 147.2 434.2 113.5 414.4 C 79.8 394.7 53.1 368 33.5 334.4 C 13.899999999999999 300.79999999999995 4 263.9 4 224 C 4 184.10000000000002 13.8 147.2 33.6 113.5 C 53.400000000000006 79.80000000000001 80.1 53.1 113.6 33.5 C 147.1 13.899999999999999 184.1 4 224 4 C 263.9 4 300.8 13.8 334.5 33.6 C 368.2 53.400000000000006 394.9 80.1 414.5 113.6 C 434.1 147.1 444 184.1 444 224 Z" stroke-miterlimit="10" stroke-dasharray=""/></g><g><g transform="matrix(1,0,0,1,0,0)"><g transform="matrix(1,0,0,1,0,0)"><path fill="#e5a000" stroke="none" id="_507D22EF-E6EF-4FFC-927D-1C4C270CB7D2?shapeType=BORDER&amp;renderType=FILL" paint-order="stroke fill markers" d=" M 0 0 M 224 408 C 122.5 408 40 325.5 40 224 C 40 122.5 122.5 40 224 40 C 325.5 40 408 122.5 408 224 C 408 325.5 325.5 408 224 408 Z M 0 0 M 224 56 C 131.4 56 56 131.4 56 224 C 56 316.6 131.4 392 224 392 C 316.6 392 392 316.6 392 224 C 392 131.39999999999998 316.6 56 224 56 Z M 0 0 M 224 16 C 252.1 16 279.3 21.5 305 32.3 C 329.8 42.8 352 57.8 371.1 76.9 C 390.20000000000005 96.00000000000001 405.20000000000005 118.30000000000001 415.70000000000005 143 C 426.50000000000006 168.6 432.00000000000006 195.9 432.00000000000006 224 C 432.00000000000006 252.1 426.50000000000006 279.3 415.70000000000005 305 C 405.20000000000005 329.8 390.20000000000005 352 371.1 371.1 C 352 390.20000000000005 329.70000000000005 405.20000000000005 305 415.70000000000005 C 279.4 426.50000000000006 252.1 432.00000000000006 224 432.00000000000006 C 195.9 432.00000000000006 168.7 426.50000000000006 143 415.70000000000005 C 118.2 405.20000000000005 96 390.20000000000005 76.9 371.1 C 57.80000000000001 352 42.8 329.7 32.3 305 C 21.5 279.3 16 252.1 16 224 C 16 195.9 21.5 168.7 32.3 143 C 42.8 118.2 57.8 96 76.9 76.9 C 96.00000000000001 57.80000000000001 118.30000000000001 42.800000000000004 143 32.300000000000004 C 168.7 21.5 195.9 16 224 16 M 224 0 C 100.3 0 0 100.3 0 224 C 0 347.7 100.3 448 224 448 C 347.7 448 448 347.7 448 224 C 448 100.30000000000001 347.7 0 224 0 L 224 0 Z"/></g></g></g><g><g transform="matrix(1,0,0,1,0,0)"><g transform="matrix(1,0,0,1,0,0)"><path fill="#e5a000" stroke="black" id="_507D22EF-E6EF-4FFC-927D-1C4C270CB7D2_wait" paint-order="fill stroke markers" d=" M 0 0 M 240.2 176.7 L 240.2 232.7 C 240.2 233.89999999999998 239.79999999999998 234.79999999999998 239.1 235.6 C 238.4 236.4 237.4 236.7 236.2 236.7 L 196.2 236.7 C 195 236.7 194.1 236.29999999999998 193.29999999999998 235.6 C 192.49999999999997 234.9 192.2 233.9 192.2 232.7 L 192.2 224.7 C 192.2 223.5 192.6 222.6 193.29999999999998 221.79999999999998 C 193.99999999999997 220.99999999999997 194.99999999999997 220.7 196.2 220.7 L 224.2 220.7 L 224.2 176.7 C 224.2 175.5 224.6 174.6 225.29999999999998 173.79999999999998 C 225.99999999999997 172.99999999999997 226.99999999999997 172.7 228.2 172.7 L 236.2 172.7 C 237.29999999999998 172.7 238.29999999999998 173.1 239.1 173.79999999999998 C 239.9 174.5 240.2 175.5 240.2 176.7 Z M 0 0 M 300.2 220.7 C 300.2 206.89999999999998 296.8 194.2 290.09999999999997 182.6 C 283.29999999999995 171 274.09999999999997 161.7 262.49999999999994 154.9 C 250.79999999999995 148.1 238.09999999999994 144.70000000000002 224.29999999999995 144.70000000000002 C 210.49999999999997 144.70000000000002 197.79999999999995 148.10000000000002 186.19999999999996 154.9 C 174.59999999999997 161.70000000000002 165.39999999999995 170.9 158.59999999999997 182.5 C 151.79999999999998 194.1 148.39999999999998 206.9 148.39999999999998 220.7 C 148.39999999999998 234.49999999999997 151.79999999999998 247.2 158.49999999999997 258.8 C 165.29999999999998 270.40000000000003 174.59999999999997 279.7 186.19999999999996 286.5 C 197.79999999999995 293.3 210.49999999999997 296.7 224.29999999999995 296.7 C 238.09999999999994 296.7 250.79999999999995 293.3 262.4 286.5 C 274 279.7 283.29999999999995 270.5 290 258.9 C 296.8 247.2 300.2 234.5 300.2 220.7 Z M 0 0 M 320.2 220.7 C 320.2 238.1 315.9 254.2 307.3 268.9 C 298.7 283.59999999999997 287.1 295.29999999999995 272.40000000000003 303.79999999999995 C 257.70000000000005 312.4 241.60000000000002 316.69999999999993 224.20000000000005 316.69999999999993 C 206.80000000000007 316.69999999999993 190.70000000000005 312.3999999999999 176.00000000000006 303.79999999999995 C 161.30000000000007 295.19999999999993 149.70000000000005 283.59999999999997 141.10000000000005 268.9 C 132.50000000000006 254.2 128.30000000000004 238.09999999999997 128.30000000000004 220.7 C 128.30000000000004 203.3 132.60000000000005 187.2 141.20000000000005 172.5 C 149.80000000000004 157.8 161.40000000000003 146.1 176.10000000000005 137.5 C 190.80000000000004 128.9 206.90000000000006 124.7 224.30000000000007 124.7 C 241.70000000000007 124.7 257.80000000000007 129 272.50000000000006 137.6 C 287.20000000000005 146.2 298.90000000000003 157.9 307.40000000000003 172.5 C 316 187.2 320.2 203.3 320.2 220.7 Z" stroke-miterlimit="10" stroke-dasharray=""/></g></g></g></g><g transform="matrix(1,0,0,1,28,61)"/></g><g transform="matrix(1,0,0,1,507,550)"/><g id="_4ED96B21-E4C8-42E0-89EF-18DD016CC6AB" bpmn2nodeid="_4ED96B21-E4C8-42E0-89EF-18DD016CC6AB" transform="matrix(1,0,0,1,643,550)"><g><path fill="none" stroke="none"/></g><g transform="matrix(0.125,0,0,0.125,0,0)"><g transform="matrix(1,0,0,1,0,0)"><path fill="#fce7e7" stroke="black" id="_4ED96B21-E4C8-42E0-89EF-18DD016CC6AB?shapeType=BACKGROUND" paint-order="fill stroke markers" d=" M 0 0 M 444 224 C 444 263.9 434.2 300.8 414.4 334.5 C 394.7 368.2 368 394.9 334.4 414.5 C 300.79999999999995 434.1 263.9 444 224 444 C 184.10000000000002 444 147.2 434.2 113.5 414.4 C 79.8 394.7 53.1 368 33.5 334.4 C 13.899999999999999 300.79999999999995 4 263.9 4 224 C 4 184.10000000000002 13.8 147.2 33.6 113.5 C 53.400000000000006 79.80000000000001 80.1 53.1 113.6 33.5 C 147.1 13.899999999999999 184.1 4 224 4 C 263.9 4 300.8 13.8 334.5 33.6 C 368.2 53.400000000000006 394.9 80.1 414.5 113.6 C 434.1 147.1 444 184.1 444 224 Z" stroke-miterlimit="10" stroke-dasharray=""/></g><g><g transform="matrix(1,0,0,1,0,0)"><g transform="matrix(1,0,0,1,0,0)"><path fill="#a30000" stroke="black" id="_4ED96B21-E4C8-42E0-89EF-18DD016CC6AB?shapeType=BORDER&amp;renderType=FILL" paint-order="fill stroke markers" d=" M 0 0 M 224 0 C 100.3 0 0 100.3 0 224 C 0 347.7 100.3 448 224 448 C 347.7 448 448 347.7 448 224 C 448 100.30000000000001 347.7 0 224 0 Z M 0 0 M 224 400 C 126.8 400 48 321.2 48 224 C 48 126.80000000000001 126.8 48 224 48 C 321.2 48 400 126.8 400 224 C 400 321.2 321.2 400 224 400 Z" stroke-miterlimit="10" stroke-dasharray=""/></g></g></g></g><g transform="matrix(1,0,0,1,28,61)"/></g><g transform="matrix(1,0,0,1,643,550)"/><g id="_DA5D52BA-68B4-4473-AA42-751682654437" bpmn2nodeid="_DA5D52BA-68B4-4473-AA42-751682654437" transform="matrix(1,0,0,1,643,452)"><g><path fill="none" stroke="none"/></g><g transform="matrix(0.125,0,0,0.125,0,0)"><g transform="matrix(1,0,0,1,0,0)"><path fill="#fce7e7" stroke="black" id="_DA5D52BA-68B4-4473-AA42-751682654437?shapeType=BACKGROUND" paint-order="fill stroke markers" d=" M 0 0 M 444 224 C 444 263.9 434.2 300.8 414.4 334.5 C 394.7 368.2 368 394.9 334.4 414.5 C 300.79999999999995 434.1 263.9 444 224 444 C 184.10000000000002 444 147.2 434.2 113.5 414.4 C 79.8 394.7 53.1 368 33.5 334.4 C 13.899999999999999 300.79999999999995 4 263.9 4 224 C 4 184.10000000000002 13.8 147.2 33.6 113.5 C 53.400000000000006 79.80000000000001 80.1 53.1 113.6 33.5 C 147.1 13.899999999999999 184.1 4 224 4 C 263.9 4 300.8 13.8 334.5 33.6 C 368.2 53.400000000000006 394.9 80.1 414.5 113.6 C 434.1 147.1 444 184.1 444 224 Z" stroke-miterlimit="10" stroke-dasharray=""/></g><g><g transform="matrix(1,0,0,1,0,0)"><g transform="matrix(1,0,0,1,0,0)"><path fill="#a30000" stroke="black" id="_DA5D52BA-68B4-4473-AA42-751682654437?shapeType=BORDER&amp;renderType=FILL" paint-order="fill stroke markers" d=" M 0 0 M 224 0 C 100.3 0 0 100.3 0 224 C 0 347.7 100.3 448 224 448 C 347.7 448 448 347.7 448 224 C 448 100.30000000000001 347.7 0 224 0 Z M 0 0 M 224 400 C 126.8 400 48 321.2 48 224 C 48 126.80000000000001 126.8 48 224 48 C 321.2 48 400 126.8 400 224 C 400 321.2 321.2 400 224 400 Z" stroke-miterlimit="10" stroke-dasharray=""/></g></g></g></g><g transform="matrix(1,0,0,1,28,61)"/></g><g transform="matrix(1,0,0,1,643,452)"/><g id="_38710EAE-60C3-4823-B20D-9AE75A9591BD" bpmn2nodeid="_38710EAE-60C3-4823-B20D-9AE75A9591BD"><g><path fill="none" stroke="#000000" paint-order="fill stroke markers" d=" M 147 480 L 220 480" stroke-miterlimit="10" stroke-dasharray=""/></g><g transform="matrix(1,0,0,1,147,480)"/><g transform="matrix(6.123233995736766e-17,1,-1,6.123233995736766e-17,235,475)"><path fill="#000000" stroke="#000000" paint-order="fill stroke markers" d=" M 10 15 L 0 15 L 5 0 Z" stroke-miterlimit="10" stroke-dasharray=""/></g><g transform="matrix(1,0,0,1,147,470)"/></g><g id="_230182DE-CDD6-4E31-A2FB-9862E50E96C8" bpmn2nodeid="_230182DE-CDD6-4E31-A2FB-9862E50E96C8"><g><path fill="none" stroke="#000000" paint-order="fill stroke markers" d=" M 291 480 L 356 480" stroke-miterlimit="10" stroke-dasharray=""/></g><g transform="matrix(1,0,0,1,291,480)"/><g transform="matrix(6.123233995736766e-17,1,-1,6.123233995736766e-17,371,475)"><path fill="#000000" stroke="#000000" paint-order="fill stroke markers" d=" M 10 15 L 0 15 L 5 0 Z" stroke-miterlimit="10" stroke-dasharray=""/></g><g transform="matrix(1,0,0,1,291,470)"/></g><g id="_C9ABEE82-BE00-415C-8C68-4FC8E9F77D2E" bpmn2nodeid="_C9ABEE82-BE00-415C-8C68-4FC8E9F77D2E"><g><path fill="none" stroke="#000000" paint-order="fill stroke markers" d=" M 399 508 L 520.6678796322755 545.5739040040851" stroke-miterlimit="10" stroke-dasharray=""/></g><g transform="matrix(1,0,0,1,399,508)"/><g transform="matrix(-0.2950730663943288,0.9554746911816387,-0.9554746911816387,-0.2950730663943288,536.4753653319716,545.2226265440918)"><path fill="#000000" stroke="#000000" paint-order="fill stroke markers" d=" M 10 15 L 0 15 L 5 0 Z" stroke-miterlimit="10" stroke-dasharray=""/></g><g transform="matrix(1,0,0,1,401.9507306639433,519.4452530881836)"/></g><g id="_3E15CA41-AA9C-455E-AF15-E766E7212D29" bpmn2nodeid="_3E15CA41-AA9C-455E-AF15-E766E7212D29"><g><path fill="none" stroke="#000000" paint-order="fill stroke markers" d=" M 563 578 L 628 578" stroke-miterlimit="10" stroke-dasharray=""/></g><g transform="matrix(1,0,0,1,563,578)"/><g transform="matrix(6.123233995736766e-17,1,-1,6.123233995736766e-17,643,573)"><path fill="#000000" stroke="#000000" paint-order="fill stroke markers" d=" M 10 15 L 0 15 L 5 0 Z" stroke-miterlimit="10" stroke-dasharray=""/></g><g transform="matrix(1,0,0,1,563,568)"/></g><g id="_C11ABBAD-1BE3-4334-BA6E-FB9B164D164D" bpmn2nodeid="_C11ABBAD-1BE3-4334-BA6E-FB9B164D164D"><g><path fill="none" stroke="#000000" paint-order="fill stroke markers" d=" M 427 480 L 492 480" stroke-miterlimit="10" stroke-dasharray=""/></g><g transform="matrix(1,0,0,1,427,480)"/><g transform="matrix(6.123233995736766e-17,1,-1,6.123233995736766e-17,507,475)"><path fill="#000000" stroke="#000000" paint-order="fill stroke markers" d=" M 10 15 L 0 15 L 5 0 Z" stroke-miterlimit="10" stroke-dasharray=""/></g><g transform="matrix(1,0,0,1,427,470)"/></g><g id="_4AEF2EA1-ECC8-47E7-9224-EDDD58B513C3" bpmn2nodeid="_4AEF2EA1-ECC8-47E7-9224-EDDD58B513C3"><g><path fill="none" stroke="#000000" paint-order="fill stroke markers" d=" M 563 480 L 628 480" stroke-miterlimit="10" stroke-dasharray=""/></g><g transform="matrix(1,0,0,1,563,480)"/><g transform="matrix(6.123233995736766e-17,1,-1,6.123233995736766e-17,643,475)"><path fill="#000000" stroke="#000000" paint-order="fill stroke markers" d=" M 10 15 L 0 15 L 5 0 Z" stroke-miterlimit="10" stroke-dasharray=""/></g><g transform="matrix(1,0,0,1,563,470)"/></g></g></g></svg>